<svg width="19" height="19" viewBox="0 0 19 19" fill="none" xmlns="http://www.w3.org/2000/svg">
<path d="M9.28034 18.7097C4.15494 18.7097 0 14.6803 0 9.70972C0 4.73914 4.15494 0.709717 9.28034 0.709717C14.4057 0.709717 18.5607 4.73914 18.5607 9.70972C18.5607 14.6803 14.4057 18.7097 9.28034 18.7097Z" fill="#29A29E"/>
<path d="M7.8662 15.1485H10.1241V9.66242H11.7042L11.87 7.82742H10.1241C10.1241 7.82742 10.1241 7.14167 10.1241 6.78223C10.1241 6.34713 10.2119 6.17687 10.6459 6.17687C10.9922 6.17687 11.87 6.17687 11.87 6.17687V4.27094C11.87 4.27094 10.5825 4.27094 10.3045 4.27094C8.62209 4.27094 7.8662 4.9898 7.8662 6.36132C7.8662 7.55785 7.8662 7.82742 7.8662 7.82742H6.69092V9.68607H7.8662V15.1485Z" fill="white"/>
</svg>
