<svg width="25" height="24" viewBox="0 0 25 24" fill="none" xmlns="http://www.w3.org/2000/svg">
<path d="M12.0644 23.0387C5.40142 23.0387 0 17.9531 0 11.6795C0 5.40599 5.40142 0.320312 12.0644 0.320312C18.7275 0.320312 24.1289 5.40599 24.1289 11.6795C24.1289 17.9531 18.7275 23.0387 12.0644 23.0387Z" fill="white"/>
<path d="M10.2261 18.5441H13.1614V11.62H15.2154L15.431 9.30396H13.1614C13.1614 9.30396 13.1614 8.43844 13.1614 7.98478C13.1614 7.43563 13.2755 7.22074 13.8397 7.22074C14.2899 7.22074 15.431 7.22074 15.431 7.22074V4.81519C15.431 4.81519 13.7573 4.81519 13.396 4.81519C11.2088 4.81519 10.2261 5.72249 10.2261 7.45353C10.2261 8.96372 10.2261 9.30396 10.2261 9.30396H8.69824V11.6498H10.2261V18.5441Z" fill="#209FA9"/>
</svg>
