<svg width="19" height="19" viewBox="0 0 19 19" fill="none" xmlns="http://www.w3.org/2000/svg">
<path d="M9.71979 18.7097C4.59439 18.7097 0.439453 14.6803 0.439453 9.70972C0.439453 4.73914 4.59439 0.709717 9.71979 0.709717C14.8452 0.709717 19.0001 4.73914 19.0001 9.70972C19.0001 14.6803 14.8452 18.7097 9.71979 18.7097Z" fill="#29A29E"/>
<path d="M9.71969 5.6661C11.0803 5.6661 11.2412 5.67083 11.7777 5.69448C12.2751 5.71812 12.5433 5.79852 12.7237 5.86473C12.9627 5.95459 13.1285 6.06337 13.3089 6.23363C13.4894 6.40861 13.5967 6.56941 13.6893 6.80115C13.7576 6.97614 13.8405 7.23625 13.8649 7.71865C13.8893 8.23888 13.8941 8.39495 13.8941 9.71445C13.8941 11.0339 13.8893 11.19 13.8649 11.7102C13.8405 12.1926 13.7576 12.4528 13.6893 12.6277C13.5967 12.8595 13.4845 13.0203 13.3089 13.1953C13.1334 13.3655 12.9627 13.4743 12.7237 13.5642C12.5433 13.6304 12.2751 13.7108 11.7777 13.7344C11.2412 13.7581 11.0803 13.7628 9.71969 13.7628C8.35909 13.7628 8.19816 13.7581 7.66173 13.7344C7.1643 13.7108 6.89608 13.6304 6.71565 13.5642C6.47669 13.4743 6.31088 13.3655 6.13045 13.1953C5.95488 13.0203 5.84272 12.8595 5.75006 12.6277C5.68179 12.4528 5.59889 12.1926 5.5745 11.7102C5.55012 11.19 5.54524 11.0339 5.54524 9.71445C5.54524 8.39495 5.55012 8.23888 5.5745 7.71865C5.59889 7.23625 5.68179 6.97614 5.75006 6.80115C5.84272 6.56941 5.95488 6.40861 6.13045 6.23363C6.31088 6.05864 6.47669 5.95459 6.71565 5.86473C6.89608 5.79852 7.1643 5.71812 7.66173 5.69448C8.20304 5.67083 8.36397 5.6661 9.71969 5.6661ZM9.71969 4.77698C8.33959 4.77698 8.16402 4.78171 7.62271 4.80535C7.0814 4.829 6.71077 4.91413 6.38891 5.03709C6.05242 5.16479 5.76957 5.33031 5.48672 5.60462C5.20387 5.87892 5.02831 6.15323 4.90152 6.47955C4.77472 6.79169 4.69182 7.15112 4.66256 7.67608C4.63818 8.20105 4.6333 8.3713 4.6333 9.70972C4.6333 11.0481 4.63818 11.2184 4.66256 11.7433C4.68694 12.2683 4.77472 12.6277 4.90152 12.9399C5.03319 13.2662 5.20387 13.5405 5.48672 13.8148C5.76957 14.0891 6.05242 14.2594 6.38891 14.3823C6.71077 14.5053 7.0814 14.5857 7.62271 14.6141C8.16402 14.6377 8.33959 14.6425 9.71969 14.6425C11.0998 14.6425 11.2754 14.6377 11.8167 14.6141C12.358 14.5904 12.7286 14.5053 13.0505 14.3823C13.387 14.2546 13.6698 14.0891 13.9527 13.8148C14.2355 13.5405 14.4111 13.2662 14.5379 12.9399C14.6647 12.6277 14.7476 12.2683 14.7768 11.7433C14.8012 11.2184 14.8061 11.0481 14.8061 9.70972C14.8061 8.3713 14.8012 8.20105 14.7768 7.67608C14.7524 7.15112 14.6647 6.79169 14.5379 6.47955C14.4062 6.15323 14.2355 5.87892 13.9527 5.60462C13.6698 5.33031 13.387 5.16006 13.0505 5.03709C12.7286 4.91413 12.358 4.83373 11.8167 4.80535C11.2754 4.78171 11.1047 4.77698 9.71969 4.77698Z" fill="white"/>
<path d="M9.71962 7.17477C8.27612 7.17477 7.10571 8.30982 7.10571 9.70971C7.10571 11.1096 8.27612 12.2447 9.71962 12.2447C11.1631 12.2447 12.3335 11.1096 12.3335 9.70971C12.3335 8.30982 11.1631 7.17477 9.71962 7.17477ZM9.71962 11.3555C8.7833 11.3555 8.02253 10.6178 8.02253 9.70971C8.02253 8.80167 8.7833 8.06389 9.71962 8.06389C10.6559 8.06389 11.4167 8.80167 11.4167 9.70971C11.4167 10.6178 10.6559 11.3555 9.71962 11.3555Z" fill="white"/>
<path d="M13.0456 7.07546C13.0456 7.40179 12.7725 7.66664 12.436 7.66664C12.0995 7.66664 11.8264 7.40179 11.8264 7.07546C11.8264 6.74914 12.0995 6.48429 12.436 6.48429C12.7725 6.48429 13.0456 6.74914 13.0456 7.07546Z" fill="white"/>
</svg>
