<svg width="25" height="24" viewBox="0 0 25 24" fill="none" xmlns="http://www.w3.org/2000/svg">
<path d="M12.9358 23.0387C6.27276 23.0387 0.871338 17.9531 0.871338 11.6795C0.871338 5.40599 6.27276 0.320312 12.9358 0.320312C19.5988 0.320312 25.0002 5.40599 25.0002 11.6795C25.0002 17.9531 19.5988 23.0387 12.9358 23.0387Z" fill="white"/>
<path d="M13.4121 6.49109C15.1809 6.49109 15.3901 6.49706 16.0875 6.5269C16.7341 6.55675 17.0828 6.65822 17.3174 6.74179C17.628 6.85521 17.8436 6.9925 18.0781 7.20738C18.3127 7.42824 18.4522 7.63119 18.5726 7.92368C18.6614 8.14453 18.7691 8.47283 18.8008 9.08168C18.8325 9.73829 18.8389 9.93527 18.8389 11.6007C18.8389 13.266 18.8325 13.463 18.8008 14.1196C18.7691 14.7285 18.6614 15.0568 18.5726 15.2776C18.4522 15.5701 18.3063 15.7731 18.0781 15.9939C17.8499 16.2088 17.628 16.3461 17.3174 16.4595C17.0828 16.5431 16.7341 16.6446 16.0875 16.6744C15.3901 16.7042 15.1809 16.7102 13.4121 16.7102C11.6433 16.7102 11.4341 16.7042 10.7368 16.6744C10.0901 16.6446 9.74142 16.5431 9.50685 16.4595C9.19621 16.3461 8.98066 16.2088 8.74609 15.9939C8.51786 15.7731 8.37205 15.5701 8.2516 15.2776C8.16284 15.0568 8.05506 14.7285 8.02337 14.1196C7.99167 13.463 7.98532 13.266 7.98532 11.6007C7.98532 9.93527 7.99167 9.73829 8.02337 9.08168C8.05506 8.47283 8.16284 8.14453 8.2516 7.92368C8.37205 7.63119 8.51786 7.42824 8.74609 7.20738C8.98066 6.98653 9.19621 6.85521 9.50685 6.74179C9.74142 6.65822 10.0901 6.55675 10.7368 6.5269C11.4405 6.49706 11.6497 6.49109 13.4121 6.49109ZM13.4121 5.3689C11.618 5.3689 11.3897 5.37487 10.686 5.40471C9.98233 5.43456 9.50051 5.542 9.08209 5.6972C8.64466 5.85836 8.27695 6.06728 7.90925 6.41349C7.54155 6.7597 7.31332 7.10591 7.14849 7.51778C6.98365 7.91174 6.87588 8.36539 6.83784 9.02796C6.80614 9.69053 6.7998 9.90542 6.7998 11.5947C6.7998 13.2839 6.80614 13.4988 6.83784 14.1614C6.86954 14.824 6.98365 15.2776 7.14849 15.6716C7.31966 16.0835 7.54155 16.4297 7.90925 16.7759C8.27695 17.1221 8.64466 17.337 9.08209 17.4922C9.50051 17.6474 9.98233 17.7488 10.686 17.7846C11.3897 17.8145 11.618 17.8205 13.4121 17.8205C15.2062 17.8205 15.4345 17.8145 16.1382 17.7846C16.8419 17.7548 17.3237 17.6474 17.7421 17.4922C18.1796 17.331 18.5473 17.1221 18.915 16.7759C19.2827 16.4297 19.5109 16.0835 19.6757 15.6716C19.8406 15.2776 19.9483 14.824 19.9864 14.1614C20.0181 13.4988 20.0244 13.2839 20.0244 11.5947C20.0244 9.90542 20.0181 9.69053 19.9864 9.02796C19.9547 8.36539 19.8406 7.91174 19.6757 7.51778C19.5046 7.10591 19.2827 6.7597 18.915 6.41349C18.5473 6.06728 18.1796 5.85239 17.7421 5.6972C17.3237 5.542 16.8419 5.44053 16.1382 5.40471C15.4345 5.37487 15.2126 5.3689 13.4121 5.3689Z" fill="#209FA9"/>
<path d="M13.4127 8.39502C11.5362 8.39502 10.0146 9.82761 10.0146 11.5945C10.0146 13.3613 11.5362 14.7939 13.4127 14.7939C15.2893 14.7939 16.8108 13.3613 16.8108 11.5945C16.8108 9.82761 15.2893 8.39502 13.4127 8.39502ZM13.4127 13.6717C12.1955 13.6717 11.2065 12.7405 11.2065 11.5945C11.2065 10.4484 12.1955 9.51721 13.4127 9.51721C14.6299 9.51721 15.6189 10.4484 15.6189 11.5945C15.6189 12.7405 14.6299 13.6717 13.4127 13.6717Z" fill="#209FA9"/>
<path d="M17.7363 8.26982C17.7363 8.68169 17.3813 9.01596 16.9438 9.01596C16.5064 9.01596 16.1514 8.68169 16.1514 8.26982C16.1514 7.85795 16.5064 7.52368 16.9438 7.52368C17.3813 7.52368 17.7363 7.85795 17.7363 8.26982Z" fill="#209FA9"/>
</svg>
