<svg width="220" height="117" viewBox="0 0 220 117" fill="none" xmlns="http://www.w3.org/2000/svg">
<g filter="url(#filter0_d_63_80)">
<rect x="10" width="200" height="103" rx="10" fill="white"/>
</g>
<g clip-path="url(#clip0_63_80)">
<path fill-rule="evenodd" clip-rule="evenodd" d="M32.0215 45.4623L40.7978 45.9435L43.6422 37.3868L44.8009 36.585L50.9642 43.2123L58.1717 44.3751L51.0619 52.0826L53.7036 60.6133H54.3378L45.1013 55.3939L36.9854 61.7194L37.107 53.3279L32.0215 45.4623Z" fill="#F2F2F2"/>
<path fill-rule="evenodd" clip-rule="evenodd" d="M41.8159 44.809L44.8677 36.585L47.5356 43.6227L48.3582 44.809L49.8054 45.3727H58.1717L53.2745 48.8397L50.9785 50.0001L50.4134 50.8397L50.5541 52.9411L53.2935 60.6133L46.5581 55.8491L45.1013 55.3939L43.5921 55.8633L36.9091 60.6109L39.7964 51.1746L39.0335 50.1675L32.0215 45.4623" fill="#F2F2F2"/>
<path fill-rule="evenodd" clip-rule="evenodd" d="M66.8574 50.2406C67.947 50.901 69.0032 51.2312 70.026 51.2312C71.0942 51.2312 71.8333 50.8939 72.2434 50.2241C72.6534 49.5543 72.8609 48.5142 72.8609 47.1062V29.21C73.5213 29.0779 74.3939 29.0118 75.4788 29.0118C76.5636 29.0118 77.4577 29.0779 78.1634 29.21V46.6109C78.1634 48.0166 78.0394 49.2784 77.7962 50.3868C77.553 51.4953 77.1334 52.4364 76.535 53.2076C75.9341 53.9765 75.1402 54.5661 74.1555 54.9718C73.1661 55.3798 71.9334 55.5826 70.448 55.5826C68.3857 55.5826 66.5737 55.0991 65.0239 54.1321C65.2671 52.6156 65.8799 51.3185 66.8574 50.2406ZM95.5253 48.6911H86.8563C86.9016 49.6699 87.1567 50.434 87.6168 50.9788C88.0842 51.5236 88.8495 51.7925 89.9129 51.7925C90.4469 51.7925 91.0573 51.7147 91.7582 51.5661C92.4521 51.4175 93.2579 51.1746 94.1639 50.835C94.8911 51.5826 95.3489 52.5944 95.5253 53.8703C93.7467 55.1251 91.5675 55.7501 88.9902 55.7501C87.5906 55.7501 86.4176 55.5307 85.471 55.0897C84.5269 54.6486 83.7592 54.0331 83.1703 53.243C82.5814 52.4505 82.1641 51.5166 81.9209 50.4387C81.6754 49.3609 81.5538 48.184 81.5538 46.9104C81.5538 45.6793 81.704 44.5401 82.0044 43.4953C82.3048 42.4505 82.7602 41.5425 83.3705 40.7736C83.9809 40.0048 84.7605 39.3986 85.7047 38.96C86.6488 38.5213 87.7551 38.2996 89.0235 38.2996C90.0917 38.2996 91.0525 38.4765 91.9085 38.8279C92.7644 39.1793 93.4916 39.6628 94.0924 40.2784C94.6932 40.8939 95.1534 41.6298 95.4753 42.4883C95.7971 43.3468 95.9592 44.2807 95.9592 45.2925C95.9592 46.6345 95.8138 47.7666 95.5253 48.6911ZM86.8205 45.1274H91.1884V44.7642C91.1884 43.9505 91.0048 43.2807 90.6448 42.7524C90.2776 42.2241 89.734 41.96 89.0045 41.96C88.2987 41.96 87.7766 42.2076 87.4309 42.7029C87.0947 43.1982 86.8873 44.0071 86.8205 45.1274ZM101.207 55.2548V42.3585L98.3387 42.3916C98.2052 41.8468 98.1384 41.2477 98.1384 40.5944C98.1384 39.9411 98.2052 39.3302 98.3387 38.7642L100.94 38.7972C100.828 37.9835 100.773 35.5685 100.773 34.9104C100.773 33.2618 101.312 31.8916 102.39 30.8043C103.467 29.717 104.874 29.1722 106.607 29.1722C108.341 29.1722 110.043 29.4812 111.709 30.0968C111.731 30.6675 111.631 31.2901 111.409 31.96C111.187 32.6298 110.908 33.1416 110.575 33.493C109.53 33.184 108.674 33.0307 108.007 33.0307C106.517 33.0307 105.773 33.7901 105.773 35.3067C105.773 35.9435 105.818 38.2383 105.906 38.8326L110.274 38.7666C110.408 39.3326 110.474 39.9435 110.474 40.5968C110.474 41.2501 110.408 41.8491 110.274 42.3939L106.273 42.3279V55.2595C105.518 55.3916 104.683 55.4576 103.772 55.4576C102.864 55.4529 102.006 55.3868 101.207 55.2548ZM126.129 48.6911H117.458C117.503 49.6699 117.758 50.434 118.218 50.9788C118.686 51.5236 119.453 51.7925 120.514 51.7925C121.048 51.7925 121.659 51.7147 122.36 51.5661C123.056 51.4175 123.859 51.1746 124.765 50.835C125.493 51.5826 125.948 52.5944 126.127 53.8703C124.348 55.1251 122.169 55.7501 119.592 55.7501C118.192 55.7501 117.019 55.5307 116.075 55.0897C115.131 54.6486 114.363 54.0331 113.774 53.243C113.185 52.4505 112.768 51.5166 112.522 50.4387C112.279 49.3609 112.155 48.184 112.155 46.9104C112.155 45.6793 112.305 44.5401 112.606 43.4953C112.906 42.4505 113.362 41.5425 113.974 40.7736C114.587 40.0048 115.364 39.3986 116.309 38.96C117.253 38.5213 118.359 38.2996 119.627 38.2996C120.693 38.2996 121.656 38.4765 122.512 38.8279C123.368 39.1793 124.095 39.6628 124.696 40.2784C125.297 40.8939 125.757 41.6298 126.079 42.4883C126.401 43.3468 126.563 44.2807 126.563 45.2925C126.563 46.6345 126.418 47.7666 126.129 48.6911ZM117.427 45.1274H121.795V44.7642C121.795 43.9505 121.611 43.2807 121.251 42.7524C120.884 42.2241 120.34 41.96 119.611 41.96C118.905 41.96 118.383 42.2076 118.037 42.7029C117.699 43.1982 117.491 44.0071 117.427 45.1274ZM129.877 41.1699C129.989 40.7312 130.199 40.2406 130.511 39.7029C130.821 39.1651 131.134 38.7736 131.446 38.5331C133.492 38.6864 134.915 39.6887 135.714 41.5354C136.558 39.5567 137.948 38.5661 139.884 38.5661C140.461 38.5661 141.195 38.6534 142.084 38.8302C142.084 39.5118 141.968 40.3208 141.734 41.2548C141.5 42.1887 141.183 42.9859 140.783 43.6463C140.406 43.5142 139.839 43.4034 139.083 43.3161C137.972 43.3161 137.061 43.8774 136.348 44.9977V55.2571C135.614 55.3892 134.753 55.4552 133.764 55.4552C132.774 55.4552 131.901 55.3892 131.146 55.2571V44.6015C131.143 42.9505 130.721 41.8067 129.877 41.1699ZM143.927 54.1345C143.949 53.5637 144.099 52.9364 144.378 52.2548C144.657 51.5732 144.984 51.0354 145.363 50.6392C147.141 51.5637 148.686 52.0236 149.998 52.0236C150.62 52.0236 151.099 51.9199 151.431 51.71C151.764 51.5001 151.931 51.2194 151.931 50.868C151.931 50.2076 151.419 49.7147 150.398 49.3845L148.565 48.6911C145.785 47.6793 144.397 46.0307 144.397 43.743C144.397 42.0708 144.981 40.7477 146.147 39.7689C147.315 38.7901 148.887 38.3019 150.866 38.3019C151.845 38.3019 152.923 38.4387 154.101 38.7147C155.279 38.9906 156.247 39.3137 157.003 39.6887C157.048 40.3043 156.924 40.9812 156.635 41.717C156.347 42.4529 155.992 42.9765 155.57 43.2831C153.703 42.4482 152.146 42.0307 150.901 42.0307C150.455 42.0307 150.117 42.1298 149.883 42.3279C149.65 42.526 149.533 42.7784 149.533 43.0873C149.533 43.6156 149.955 44.0331 150.799 44.342L152.866 45.0685C155.822 46.1015 157.301 47.8727 157.301 50.3798C157.301 52.0284 156.69 53.3373 155.467 54.3043C154.244 55.2713 152.499 55.7548 150.231 55.7548C147.964 55.7501 145.863 55.2123 143.927 54.1345ZM173.187 40.2453C174.787 41.8279 175.588 44.0944 175.588 47.0401C175.588 48.3609 175.416 49.559 175.07 50.6368C174.727 51.7147 174.226 52.6321 173.571 53.3916C172.915 54.151 172.109 54.7335 171.153 55.1392C170.197 55.5472 169.095 55.7501 167.851 55.7501C166.606 55.7501 165.509 55.5425 164.565 55.1227C163.621 54.7052 162.82 54.1156 162.164 53.3585C161.509 52.5991 161.013 51.6817 160.679 50.6038C160.345 49.526 160.178 48.3397 160.178 47.0401C160.178 45.7218 160.345 44.5284 160.679 43.4623C161.013 42.3963 161.502 41.4765 162.148 40.7076C162.791 39.9387 163.593 39.3444 164.549 38.9269C165.505 38.5095 166.606 38.2996 167.851 38.2996C170.051 38.2996 171.83 38.9482 173.187 40.2453ZM167.867 42.1604C167.374 42.1604 166.978 42.276 166.678 42.5071C166.373 42.7383 166.132 43.0519 165.955 43.4482C165.772 43.8444 165.65 44.2996 165.583 44.8161C165.517 45.3326 165.483 45.8892 165.483 46.4812C165.483 47.4057 165.512 48.2029 165.567 48.8727C165.622 49.5425 165.734 50.1038 165.905 50.5543C166.072 51.0048 166.306 51.3397 166.606 51.5614C166.911 51.7807 167.307 51.8916 167.801 51.8916C168.785 51.8916 169.434 51.4694 169.746 50.6227C170.063 49.776 170.218 48.5732 170.218 47.0095C170.218 45.4269 170.063 44.2218 169.746 43.3986C169.434 42.5708 168.807 42.1604 167.867 42.1604ZM194.075 44.3703V51.1321C194.075 52.5826 194.342 53.6722 194.876 54.3986C194.032 55.1463 193.019 55.5213 191.841 55.5213C190.685 55.5213 189.895 55.2571 189.473 54.7288C189.051 54.2005 188.839 53.3986 188.839 52.3208V45.2925C188.839 44.5449 188.739 43.9953 188.539 43.6439C188.338 43.2925 187.95 43.1156 187.373 43.1156C187.039 43.1156 186.662 43.2029 186.238 43.3798C185.816 43.5567 185.382 43.842 184.936 44.2383V55.2548C184.559 55.3208 184.147 55.3703 183.701 55.4034C183.258 55.4364 182.8 55.4529 182.335 55.4529C181.868 55.4529 181.412 55.4364 180.969 55.4034C180.523 55.3703 180.113 55.3208 179.736 55.2548V38.7949L179.97 38.5637H181.937C183.293 38.5637 184.204 39.2241 184.672 40.5425C186.228 39.1793 187.773 38.4977 189.306 38.4977C190.863 38.4977 192.046 39.0307 192.859 40.0968C193.667 41.1651 194.075 42.5873 194.075 44.3703Z" fill="#231F20"/>
<path fill-rule="evenodd" clip-rule="evenodd" d="M42.8462 30.2972L38.7667 43.2123C38.4187 44.3161 39.0385 45.5 40.1544 45.8491C41.2678 46.1958 42.4718 45.5802 42.8199 44.4765L46.8993 31.5614C47.2474 30.4576 46.6275 29.2736 45.5117 28.9246C44.3959 28.5779 43.1943 29.1934 42.8462 30.2972Z" fill="url(#paint0_linear_63_80)"/>
<path fill-rule="evenodd" clip-rule="evenodd" d="M48.9472 45.9505L62.6255 45.9434C63.7938 45.9434 64.7522 45.0024 64.7546 43.8467C64.757 42.6911 63.8033 41.7406 62.635 41.7406L48.9568 41.7477C47.7885 41.7477 46.83 42.6887 46.8276 43.8444C46.8253 45 47.7789 45.9505 48.9472 45.9505Z" fill="url(#paint1_linear_63_80)"/>
<path fill-rule="evenodd" clip-rule="evenodd" d="M25.9035 45.5661L37.107 53.3279C38.0631 53.9906 39.3935 53.7642 40.0658 52.8184C40.7382 51.8727 40.5093 50.5543 39.5508 49.8916L28.3498 42.1298C27.3937 41.467 26.0633 41.6934 25.3885 42.6392C24.7162 43.5826 24.9451 44.9033 25.9035 45.5661Z" fill="url(#paint2_linear_63_80)"/>
<path fill-rule="evenodd" clip-rule="evenodd" d="M63.858 45.5661L52.6545 53.3279C51.6984 53.9906 50.368 53.7642 49.6957 52.8184C49.0233 51.8727 49.2522 50.5543 50.2107 49.8916L61.4141 42.1298C62.3702 41.467 63.7006 41.6934 64.3753 42.6392C65.0453 43.5826 64.814 44.9033 63.858 45.5661Z" fill="#007DB3"/>
<path fill-rule="evenodd" clip-rule="evenodd" d="M57.9762 63.684L53.4438 50.9175C53.0575 49.8279 51.8416 49.243 50.74 49.625C49.6361 50.0048 49.0449 51.21 49.4335 52.2996L53.9659 65.0661C54.3521 66.1557 55.5681 66.7406 56.672 66.3609C57.7711 65.9788 58.3624 64.7736 57.9762 63.684Z" fill="url(#paint3_linear_63_80)"/>
<path fill-rule="evenodd" clip-rule="evenodd" d="M57.2275 62.6769L46.1408 54.7524C45.1943 54.0755 43.8615 54.2831 43.1725 55.217C42.4858 56.151 42.6956 57.4741 43.6422 58.151L54.7288 66.0755C55.6754 66.7524 57.0081 66.5449 57.6972 65.6109C58.3838 64.6769 58.174 63.3538 57.2275 62.6769Z" fill="#008944"/>
<path fill-rule="evenodd" clip-rule="evenodd" d="M32.5343 62.6769L43.6209 54.7524C44.5674 54.0755 45.9026 54.2831 46.5893 55.217C47.2759 56.151 47.0661 57.4741 46.1196 58.151L35.0329 66.0755C34.0864 66.7524 32.7512 66.5449 32.0646 65.6109C31.3779 64.6769 31.5877 63.3538 32.5343 62.6769Z" fill="url(#paint4_linear_63_80)"/>
<path fill-rule="evenodd" clip-rule="evenodd" d="M31.7856 63.684L36.318 50.9175C36.7042 49.8279 37.9202 49.243 39.0217 49.625C40.1256 50.0048 40.7169 51.21 40.3283 52.2996L35.7959 65.0661C35.4096 66.1557 34.1937 66.7406 33.0921 66.3609C31.9882 65.9788 31.3993 64.7736 31.7856 63.684Z" fill="#FAB613"/>
<path fill-rule="evenodd" clip-rule="evenodd" d="M27.1196 45.9505L40.7979 45.9434C41.9661 45.9434 42.9246 45.0024 42.927 43.8467C42.9294 42.6911 41.9757 41.7406 40.8074 41.7406L27.1291 41.7477C25.9608 41.7477 25.0024 42.6887 25 43.8444C24.9976 45 25.9513 45.9505 27.1196 45.9505Z" fill="#C1161C"/>
<path fill-rule="evenodd" clip-rule="evenodd" d="M46.8849 30.2972L50.9643 43.2123C51.3124 44.3161 50.6925 45.5 49.5767 45.8491C48.4632 46.1958 47.2592 45.5802 46.9111 44.4765L42.8317 31.5614C42.4836 30.4576 43.1035 29.2736 44.2193 28.9246C45.3351 28.5779 46.5368 29.1934 46.8849 30.2972Z" fill="#A24683"/>
<path fill-rule="evenodd" clip-rule="evenodd" d="M119.468 34.3161C119.368 34.3161 119.296 34.2949 119.251 34.2477C119.205 34.2029 119.182 34.1321 119.182 34.0331V29.651C119.182 29.5519 119.205 29.4812 119.251 29.4364C119.296 29.3916 119.368 29.3703 119.468 29.3703H120.996C121.735 29.3703 122.3 29.5826 122.694 30.0095C123.087 30.4364 123.283 31.0472 123.283 31.8444C123.283 32.6416 123.085 33.2524 122.694 33.6793C122.3 34.1062 121.735 34.3184 120.996 34.3184H119.468V34.3161ZM120.996 33.3916C121.378 33.3916 121.666 33.2595 121.862 32.9953C122.057 32.7312 122.155 32.3467 122.155 31.8444C122.155 31.3397 122.057 30.9552 121.862 30.6934C121.666 30.4293 121.378 30.2972 120.996 30.2972H120.288V33.3939H120.996V33.3916ZM124.68 34.3161C124.58 34.3161 124.508 34.2949 124.463 34.2477C124.417 34.2029 124.396 34.1321 124.396 34.0331V29.651C124.396 29.5519 124.417 29.4812 124.463 29.4364C124.508 29.3916 124.58 29.3703 124.68 29.3703H127.188C127.264 29.3703 127.319 29.3986 127.352 29.4552C127.386 29.5118 127.402 29.6015 127.402 29.7241V29.9434C127.402 30.0661 127.386 30.1557 127.352 30.2123C127.319 30.2689 127.264 30.2972 127.188 30.2972H125.495V31.3232H126.995C127.071 31.3232 127.126 31.3515 127.159 31.4081C127.193 31.4647 127.209 31.5543 127.209 31.6769V31.8963C127.209 32.0189 127.193 32.1085 127.159 32.1651C127.126 32.2217 127.071 32.2501 126.995 32.2501H125.495V33.3963H127.195C127.271 33.3963 127.326 33.4246 127.36 33.4812C127.393 33.5378 127.41 33.6274 127.41 33.7501V33.9694C127.41 34.092 127.393 34.1817 127.36 34.2383C127.326 34.2949 127.271 34.3232 127.195 34.3232H124.68V34.3161ZM128.921 34.3302C128.635 34.3302 128.492 34.2548 128.492 34.1038V29.651C128.492 29.5519 128.514 29.4812 128.559 29.4364C128.604 29.3916 128.676 29.3703 128.778 29.3703H130.278C130.726 29.3703 131.119 29.4788 131.463 29.6911C131.806 29.9057 131.978 30.3137 131.978 30.9175C131.978 31.3326 131.878 31.6534 131.677 31.8821C131.477 32.1109 131.253 32.2642 131.005 32.3444C130.757 32.4246 130.538 32.4647 130.347 32.4647H129.589V34.1038C129.589 34.2548 129.446 34.3302 129.16 34.3302H128.921ZM130.23 31.5331C130.402 31.5331 130.547 31.4883 130.669 31.3986C130.79 31.309 130.85 31.1486 130.85 30.9175C130.85 30.6864 130.79 30.526 130.669 30.434C130.547 30.342 130.402 30.2949 130.23 30.2949H129.594V31.5331H130.23ZM134.863 34.3727C134.205 34.3727 133.697 34.2241 133.334 33.9246C132.972 33.6251 132.791 33.2052 132.791 32.6628V29.5826C132.791 29.4317 132.934 29.3562 133.22 29.3562H133.463C133.749 29.3562 133.892 29.4317 133.892 29.5826V32.5944C133.892 32.8444 133.983 33.0496 134.164 33.21C134.345 33.3703 134.579 33.4505 134.865 33.4505C135.151 33.4505 135.385 33.3703 135.568 33.21C135.752 33.0496 135.843 32.8444 135.843 32.5944V29.5826C135.843 29.4317 135.986 29.3562 136.272 29.3562H136.508C136.794 29.3562 136.937 29.4317 136.937 29.5826V32.6628C136.937 33.2052 136.756 33.6251 136.393 33.9246C136.031 34.2241 135.521 34.3727 134.863 34.3727ZM139.49 34.3302C139.204 34.3302 139.061 34.2548 139.061 34.1038V30.2949H137.926C137.85 30.2949 137.795 30.2666 137.762 30.21C137.729 30.1534 137.712 30.0637 137.712 29.9411V29.7217C137.712 29.5991 137.729 29.5095 137.762 29.4529C137.795 29.3963 137.85 29.368 137.926 29.368H141.305C141.381 29.368 141.436 29.3963 141.469 29.4529C141.503 29.5095 141.519 29.5991 141.519 29.7217V29.9411C141.519 30.0637 141.503 30.1534 141.469 30.21C141.436 30.2666 141.381 30.2949 141.305 30.2949H140.17V34.1038C140.17 34.2548 140.027 34.3302 139.741 34.3302H139.49ZM141.975 34.3302C141.684 34.3302 141.539 34.2784 141.539 34.1746C141.539 34.1557 141.548 34.1133 141.567 34.0472L143.138 29.5024C143.176 29.4034 143.312 29.3538 143.546 29.3538H143.918C144.156 29.3538 144.292 29.4034 144.326 29.5024L145.897 34.0472C145.911 34.0944 145.918 34.1368 145.918 34.1746C145.918 34.2784 145.799 34.3302 145.561 34.3302H145.246C145.012 34.3302 144.879 34.2807 144.845 34.1817L144.559 33.3184H142.874L142.588 34.1817C142.554 34.2807 142.445 34.3302 142.259 34.3302H141.975ZM144.254 32.3868L143.846 31.1274C143.813 31.0331 143.777 30.8821 143.739 30.6746H143.711C143.706 30.7029 143.694 30.7642 143.677 30.8609C143.66 30.9576 143.637 31.0449 143.603 31.1251L143.181 32.3845H144.254V32.3868ZM146.994 34.3161C146.893 34.3161 146.822 34.2949 146.777 34.2477C146.731 34.2029 146.71 34.1321 146.71 34.0331V29.651C146.71 29.5519 146.731 29.4812 146.777 29.4364C146.822 29.3916 146.896 29.3703 146.994 29.3703H148.522C149.261 29.3703 149.826 29.5826 150.219 30.0095C150.613 30.4364 150.808 31.0472 150.808 31.8444C150.808 32.6416 150.61 33.2524 150.219 33.6793C149.826 34.1062 149.261 34.3184 148.522 34.3184H146.994V34.3161ZM148.524 33.3916C148.906 33.3916 149.194 33.2595 149.39 32.9953C149.585 32.7312 149.683 32.3467 149.683 31.8444C149.683 31.3397 149.585 30.9552 149.39 30.6934C149.194 30.4293 148.906 30.2972 148.524 30.2972H147.816V33.3939H148.524V33.3916ZM153.994 34.3727C153.255 34.3727 152.69 34.1557 152.294 33.7194C151.898 33.2831 151.7 32.6581 151.7 31.842C151.7 31.026 151.898 30.401 152.294 29.9647C152.69 29.5284 153.257 29.3114 153.994 29.3114C154.733 29.3114 155.298 29.5284 155.691 29.9647C156.085 30.401 156.28 31.026 156.28 31.842C156.28 32.6581 156.085 33.2831 155.691 33.7194C155.298 34.1557 154.733 34.3727 153.994 34.3727ZM153.994 33.4482C154.375 33.4482 154.664 33.3114 154.857 33.0378C155.052 32.7642 155.15 32.3656 155.15 31.8444C155.15 31.3208 155.052 30.9246 154.857 30.6534C154.661 30.3821 154.373 30.2477 153.994 30.2477C153.612 30.2477 153.324 30.3821 153.126 30.6534C152.928 30.9246 152.83 31.3208 152.83 31.8444C152.83 32.368 152.928 32.7666 153.126 33.0378C153.324 33.3114 153.612 33.4482 153.994 33.4482ZM160.648 34.3161C160.548 34.3161 160.474 34.2949 160.429 34.2477C160.383 34.2029 160.362 34.1321 160.362 34.0331V29.651C160.362 29.5519 160.383 29.4812 160.429 29.4364C160.474 29.3916 160.548 29.3703 160.648 29.3703H163.156C163.233 29.3703 163.287 29.3986 163.321 29.4552C163.354 29.5118 163.371 29.6015 163.371 29.7241V29.9434C163.371 30.0661 163.354 30.1557 163.321 30.2123C163.287 30.2689 163.233 30.2972 163.156 30.2972H161.463V31.3232H162.963C163.039 31.3232 163.094 31.3515 163.128 31.4081C163.161 31.4647 163.178 31.5543 163.178 31.6769V31.8963C163.178 32.0189 163.161 32.1085 163.128 32.1651C163.094 32.2217 163.039 32.2501 162.963 32.2501H161.463V33.3963H163.163C163.24 33.3963 163.295 33.4246 163.328 33.4812C163.361 33.5378 163.378 33.6274 163.378 33.7501V33.9694C163.378 34.092 163.361 34.1817 163.328 34.2383C163.295 34.2949 163.24 34.3232 163.163 34.3232H160.648V34.3161ZM165.803 34.3727C165.464 34.3727 165.169 34.3397 164.918 34.2736C164.665 34.2076 164.468 34.1227 164.325 34.0189C164.191 33.9293 164.124 33.8397 164.124 33.7501C164.124 33.6793 164.15 33.5944 164.203 33.4953C164.255 33.3963 164.317 33.309 164.389 33.2335C164.46 33.1581 164.52 33.1203 164.568 33.1203C164.596 33.1203 164.663 33.1486 164.768 33.2052C164.921 33.2807 165.059 33.3397 165.183 33.3821C165.307 33.4246 165.452 33.4458 165.619 33.4458C165.805 33.4458 165.963 33.4081 166.094 33.335C166.225 33.2618 166.289 33.1345 166.289 32.9505C166.289 32.7996 166.23 32.6817 166.108 32.5944C165.986 32.5071 165.791 32.4104 165.519 32.3019L165.19 32.1604C164.89 32.0189 164.654 31.8444 164.482 31.6345C164.31 31.4246 164.224 31.1274 164.224 30.7406C164.224 30.4199 164.303 30.1534 164.463 29.9387C164.623 29.7241 164.83 29.5661 165.088 29.4647C165.345 29.3633 165.622 29.3137 165.915 29.3137C166.158 29.3137 166.377 29.3373 166.575 29.3868C166.773 29.4364 166.928 29.5001 167.043 29.5826C167.147 29.6581 167.2 29.7335 167.2 29.809C167.2 29.8751 167.178 29.9576 167.136 30.0567C167.093 30.1557 167.04 30.243 166.978 30.3137C166.916 30.3868 166.859 30.4222 166.807 30.4222C166.783 30.4222 166.742 30.4104 166.687 30.3868C166.632 30.3633 166.587 30.3444 166.549 30.3302C166.377 30.2736 166.199 30.2453 166.013 30.2453C165.765 30.2453 165.593 30.2854 165.495 30.3656C165.397 30.4458 165.35 30.5378 165.35 30.6416C165.35 30.7642 165.383 30.8656 165.45 30.9458C165.517 31.026 165.598 31.0897 165.693 31.1392C165.788 31.1887 165.929 31.2524 166.115 31.3326C166.387 31.4458 166.609 31.5519 166.78 31.6534C166.952 31.7548 167.1 31.901 167.226 32.092C167.353 32.2831 167.415 32.526 167.415 32.8232C167.415 33.1864 167.338 33.4835 167.183 33.7147C167.028 33.9458 166.83 34.1133 166.587 34.217C166.346 34.3208 166.084 34.3727 165.803 34.3727ZM169.625 34.3302C169.339 34.3302 169.196 34.2548 169.196 34.1038V30.2949H168.061C167.984 30.2949 167.93 30.2666 167.896 30.21C167.863 30.1534 167.846 30.0637 167.846 29.9411V29.7217C167.846 29.5991 167.863 29.5095 167.896 29.4529C167.93 29.3963 167.984 29.368 168.061 29.368H171.439C171.515 29.368 171.57 29.3963 171.604 29.4529C171.637 29.5095 171.654 29.5991 171.654 29.7217V29.9411C171.654 30.0637 171.637 30.1534 171.604 30.21C171.57 30.2666 171.515 30.2949 171.439 30.2949H170.304V34.1038C170.304 34.2548 170.161 34.3302 169.875 34.3302H169.625ZM172.107 34.3302C171.816 34.3302 171.67 34.2784 171.67 34.1746C171.67 34.1557 171.68 34.1133 171.699 34.0472L173.27 29.5024C173.308 29.4034 173.444 29.3538 173.678 29.3538H174.05C174.288 29.3538 174.424 29.4034 174.458 29.5024L176.029 34.0472C176.043 34.0944 176.05 34.1368 176.05 34.1746C176.05 34.2784 175.931 34.3302 175.693 34.3302H175.378C175.144 34.3302 175.011 34.2807 174.977 34.1817L174.691 33.3184H173.006L172.719 34.1817C172.686 34.2807 172.576 34.3302 172.39 34.3302H172.107ZM174.386 32.3868L173.978 31.1274C173.945 31.0331 173.909 30.8821 173.871 30.6746H173.842C173.838 30.7029 173.826 30.7642 173.809 30.8609C173.792 30.9576 173.768 31.0449 173.735 31.1251L173.313 32.3845H174.386V32.3868ZM177.128 34.3161C177.028 34.3161 176.956 34.2949 176.911 34.2477C176.866 34.2029 176.842 34.1321 176.842 34.0331V29.651C176.842 29.5519 176.866 29.4812 176.911 29.4364C176.956 29.3916 177.028 29.3703 177.128 29.3703H178.656C179.395 29.3703 179.96 29.5826 180.354 30.0095C180.747 30.4364 180.943 31.0472 180.943 31.8444C180.943 32.6416 180.747 33.2524 180.354 33.6793C179.96 34.1062 179.395 34.3184 178.656 34.3184H177.128V34.3161ZM178.656 33.3916C179.038 33.3916 179.326 33.2595 179.522 32.9953C179.717 32.7312 179.815 32.3467 179.815 31.8444C179.815 31.3397 179.717 30.9552 179.522 30.6934C179.326 30.4293 179.038 30.2972 178.656 30.2972H177.948V33.3939H178.656V33.3916ZM184.056 34.3727C183.398 34.3727 182.891 34.2241 182.528 33.9246C182.166 33.6251 181.985 33.2052 181.985 32.6628V29.5826C181.985 29.4317 182.128 29.3562 182.414 29.3562H182.657C182.943 29.3562 183.086 29.4317 183.086 29.5826V32.5944C183.086 32.8444 183.177 33.0496 183.358 33.21C183.539 33.3703 183.773 33.4505 184.059 33.4505C184.345 33.4505 184.579 33.3703 184.762 33.21C184.946 33.0496 185.036 32.8444 185.036 32.5944V29.5826C185.036 29.4317 185.179 29.3562 185.465 29.3562H185.702C185.988 29.3562 186.131 29.4317 186.131 29.5826V32.6628C186.131 33.2052 185.949 33.6251 185.587 33.9246C185.222 34.2241 184.712 34.3727 184.056 34.3727ZM187.282 34.3302C186.991 34.3302 186.846 34.2784 186.846 34.1746C186.846 34.1557 186.855 34.1133 186.875 34.0472L188.446 29.5024C188.484 29.4034 188.62 29.3538 188.853 29.3538H189.225C189.464 29.3538 189.6 29.4034 189.633 29.5024L191.204 34.0472C191.219 34.0944 191.226 34.1368 191.226 34.1746C191.226 34.2784 191.107 34.3302 190.868 34.3302H190.553C190.32 34.3302 190.186 34.2807 190.153 34.1817L189.867 33.3184H188.181L187.895 34.1817C187.862 34.2807 187.752 34.3302 187.566 34.3302H187.282ZM189.562 32.3868L189.154 31.1274C189.12 31.0331 189.085 30.8821 189.047 30.6746H189.018C189.013 30.7029 189.004 30.7642 188.985 30.8609C188.968 30.9576 188.944 31.0449 188.908 31.1251L188.486 32.3845H189.562V32.3868ZM192.303 34.3161C192.203 34.3161 192.132 34.2949 192.086 34.2477C192.041 34.2029 192.02 34.1321 192.02 34.0331V29.5826C192.02 29.4317 192.163 29.3562 192.449 29.3562H192.692C192.978 29.3562 193.121 29.4317 193.121 29.5826V33.3916H194.664C194.74 33.3916 194.795 33.4199 194.828 33.4765C194.862 33.5331 194.878 33.6227 194.878 33.7453V33.9647C194.878 34.0873 194.862 34.1769 194.828 34.2335C194.795 34.2901 194.74 34.3184 194.664 34.3184H192.303V34.3161Z" fill="#AE1117"/>
<path fill-rule="evenodd" clip-rule="evenodd" d="M119.84 67.7571C119.372 67.7571 119.136 67.6345 119.136 67.3916V60.1982C119.136 60.0378 119.174 59.9222 119.248 59.8491C119.322 59.776 119.441 59.7406 119.606 59.7406H123.456C123.58 59.7406 123.671 59.7854 123.726 59.8774C123.781 59.9694 123.809 60.1133 123.809 60.3114V60.6651C123.809 60.8633 123.783 61.0071 123.726 61.0991C123.671 61.1911 123.583 61.2359 123.456 61.2359H120.941V62.9034H123.375C123.502 62.9034 123.59 62.9482 123.645 63.0401C123.7 63.1321 123.726 63.276 123.726 63.4741V63.8279C123.726 64.026 123.7 64.1699 123.645 64.2618C123.59 64.3538 123.502 64.3986 123.375 64.3986H120.941V67.3892C120.941 67.6321 120.707 67.7548 120.24 67.7548H119.84V67.7571ZM127.135 67.7359C126.971 67.7359 126.852 67.7005 126.778 67.6274C126.704 67.5543 126.666 67.4387 126.666 67.2784V60.2005C126.666 60.0401 126.704 59.9246 126.778 59.8515C126.852 59.7784 126.971 59.743 127.135 59.743H131.243C131.367 59.743 131.458 59.7878 131.513 59.8798C131.568 59.9718 131.594 60.1156 131.594 60.3137V60.6675C131.594 60.8656 131.568 61.0095 131.513 61.1015C131.458 61.1934 131.367 61.2383 131.243 61.2383H128.47V62.8939H130.929C131.053 62.8939 131.143 62.9387 131.198 63.0307C131.253 63.1227 131.279 63.2666 131.279 63.4647V63.8184C131.279 64.0166 131.253 64.1604 131.198 64.2524C131.143 64.3444 131.053 64.3892 130.929 64.3892H128.47V66.2383H131.255C131.379 66.2383 131.47 66.2831 131.525 66.3751C131.58 66.467 131.606 66.6109 131.606 66.809V67.1628C131.606 67.3609 131.58 67.5048 131.525 67.5968C131.47 67.6887 131.379 67.7335 131.255 67.7335H127.135V67.7359ZM135.323 67.7571C134.855 67.7571 134.619 67.6345 134.619 67.3916V60.1982C134.619 60.0378 134.655 59.9222 134.731 59.8491C134.805 59.776 134.925 59.7406 135.089 59.7406H137.371C139.314 59.7406 140.284 60.4576 140.284 61.8868C140.284 62.3137 140.16 62.684 139.915 63.0001C139.669 63.3161 139.335 63.5496 138.913 63.7029V63.7477C139.061 63.8019 139.214 63.9293 139.371 64.1298C139.526 64.3302 139.655 64.5543 139.757 64.7972L140.787 67.309C140.826 67.4081 140.847 67.4812 140.847 67.526C140.847 67.5944 140.787 67.6486 140.671 67.6911C140.554 67.7335 140.377 67.7548 140.144 67.7548H139.664C139.283 67.7548 139.056 67.6746 138.985 67.5142L138.06 65.2878C137.929 65.0378 137.786 64.8609 137.633 64.7571C137.48 64.6534 137.23 64.6038 136.88 64.6038H136.422V67.3892C136.422 67.6321 136.188 67.7548 135.721 67.7548H135.323V67.7571ZM137.535 63.0897C137.776 63.0897 137.988 62.9953 138.167 62.8043C138.346 62.6133 138.437 62.3821 138.437 62.1085C138.437 61.842 138.348 61.6321 138.174 61.4741C137.998 61.3184 137.759 61.2406 137.454 61.2406H136.424V63.0897H137.535ZM144.106 67.7571C143.639 67.7571 143.405 67.6345 143.405 67.3916V60.085C143.405 59.842 143.639 59.7194 144.106 59.7194H144.609C144.795 59.7194 144.953 59.7406 145.077 59.7831C145.201 59.8255 145.303 59.9057 145.382 60.0284L148.014 63.9906C148.169 64.2123 148.31 64.4364 148.436 64.6651L148.484 64.6534C148.469 64.4788 148.46 64.2194 148.46 63.8774V60.0873C148.46 59.8444 148.693 59.7218 149.163 59.7218H149.502C149.969 59.7218 150.203 59.8444 150.203 60.0873V67.3939C150.203 67.6368 149.969 67.7595 149.502 67.7595H149.058C148.87 67.7595 148.715 67.7383 148.589 67.6958C148.465 67.6534 148.362 67.5732 148.283 67.4505L145.592 63.4317C145.437 63.2123 145.296 62.9859 145.17 62.7571L145.122 62.7689C145.136 62.9434 145.146 63.2029 145.146 63.5449V67.3916C145.146 67.6345 144.912 67.7571 144.442 67.7571H144.106ZM153.369 67.7571C152.894 67.7571 152.656 67.6746 152.656 67.5071C152.656 67.4765 152.67 67.4081 152.704 67.3019L155.279 59.9623C155.341 59.8019 155.565 59.7218 155.946 59.7218H156.554C156.945 59.7218 157.167 59.8019 157.222 59.9623L159.797 67.3019C159.821 67.3774 159.833 67.4458 159.833 67.5071C159.833 67.6746 159.637 67.7571 159.246 67.7571H158.731C158.35 67.7571 158.13 67.6769 158.075 67.5166L157.608 66.1227H154.845L154.377 67.5166C154.323 67.6769 154.144 67.7571 153.839 67.7571H153.369ZM157.105 64.618L156.437 62.585C156.383 62.4317 156.323 62.1887 156.261 61.8538H156.213C156.206 61.8986 156.187 62.0001 156.161 62.1557C156.135 62.3114 156.092 62.4552 156.037 62.5826L155.345 64.6156H157.105V64.618ZM162.985 67.7571C162.517 67.7571 162.281 67.6345 162.281 67.3916V60.085C162.281 59.842 162.515 59.7194 162.985 59.7194H163.488C163.676 59.7194 163.831 59.7406 163.955 59.7831C164.079 59.8255 164.181 59.9057 164.26 60.0284L166.892 63.9906C167.047 64.2123 167.188 64.4364 167.314 64.6651L167.362 64.6534C167.345 64.4788 167.338 64.2194 167.338 63.8774V60.0873C167.338 59.8444 167.572 59.7218 168.039 59.7218H168.378C168.845 59.7218 169.079 59.8444 169.079 60.0873V67.3939C169.079 67.6368 168.845 67.7595 168.378 67.7595H167.932C167.743 67.7595 167.588 67.7383 167.464 67.6958C167.34 67.6534 167.238 67.5732 167.159 67.4505L164.468 63.4317C164.313 63.2123 164.172 62.9859 164.045 62.7571L163.998 62.7689C164.014 62.9434 164.022 63.2029 164.022 63.5449V67.3916C164.022 67.6345 163.788 67.7571 163.321 67.7571H162.985ZM172.891 67.7359C172.726 67.7359 172.607 67.7005 172.533 67.6274C172.459 67.5543 172.421 67.4387 172.421 67.2784V60.2005C172.421 60.0401 172.459 59.9246 172.533 59.8515C172.607 59.7784 172.726 59.743 172.891 59.743H175.394C176.603 59.743 177.531 60.0873 178.174 60.776C178.818 61.4647 179.14 62.4529 179.14 63.7383C179.14 65.026 178.818 66.0118 178.174 66.7005C177.531 67.3892 176.603 67.7335 175.394 67.7335H172.891V67.7359ZM175.397 66.2406C176.021 66.2406 176.494 66.0284 176.813 65.6015C177.133 65.1746 177.292 64.5543 177.292 63.7406C177.292 62.9269 177.133 62.3067 176.813 61.8798C176.494 61.4529 176.021 61.2406 175.397 61.2406H174.238V66.2406H175.397ZM182.671 67.7359C182.507 67.7359 182.39 67.7005 182.313 67.6274C182.24 67.5543 182.204 67.4387 182.204 67.2784V60.2005C182.204 60.0401 182.24 59.9246 182.313 59.8515C182.387 59.7784 182.507 59.743 182.671 59.743H186.779C186.905 59.743 186.994 59.7878 187.048 59.8798C187.103 59.9718 187.13 60.1156 187.13 60.3137V60.6675C187.13 60.8656 187.103 61.0095 187.048 61.1015C186.994 61.1934 186.905 61.2383 186.779 61.2383H184.004V62.8939H186.462C186.586 62.8939 186.677 62.9387 186.731 63.0307C186.786 63.1227 186.815 63.2666 186.815 63.4647V63.8184C186.815 64.0166 186.786 64.1604 186.731 64.2524C186.677 64.3444 186.588 64.3892 186.462 64.3892H184.004V66.2383H186.789C186.915 66.2383 187.003 66.2831 187.058 66.3751C187.113 66.467 187.139 66.6109 187.139 66.809V67.1628C187.139 67.3609 187.113 67.5048 187.058 67.5968C187.003 67.6887 186.915 67.7335 186.789 67.7335H182.671V67.7359ZM192.356 67.8279C191.803 67.8279 191.319 67.7736 190.904 67.6675C190.491 67.5614 190.167 67.4246 189.933 67.2571C189.714 67.1133 189.604 66.967 189.604 66.8232C189.604 66.71 189.647 66.5732 189.733 66.4128C189.819 66.2524 189.921 66.1109 190.038 65.9906C190.155 65.868 190.253 65.8067 190.332 65.8067C190.379 65.8067 190.487 65.8515 190.658 65.9434C190.909 66.0661 191.135 66.1604 191.338 66.2288C191.54 66.2972 191.779 66.3326 192.051 66.3326C192.356 66.3326 192.613 66.2736 192.83 66.1557C193.045 66.0378 193.152 65.8302 193.152 65.5331C193.152 65.2901 193.052 65.0968 192.854 64.9576C192.656 64.8161 192.334 64.6581 191.888 64.4835L191.35 64.2548C190.858 64.026 190.472 63.743 190.191 63.4034C189.91 63.0661 189.769 62.5826 189.769 61.96C189.769 61.4434 189.9 61.0118 190.162 60.6651C190.425 60.3185 190.766 60.0637 191.185 59.901C191.607 59.7383 192.06 59.6557 192.542 59.6557C192.94 59.6557 193.3 59.6958 193.624 59.776C193.948 59.8562 194.204 59.96 194.392 60.0897C194.564 60.2123 194.649 60.3326 194.649 60.4552C194.649 60.5614 194.614 60.6958 194.544 60.8538C194.475 61.0142 194.39 61.1534 194.287 61.2713C194.184 61.3892 194.091 61.4482 194.006 61.4482C193.968 61.4482 193.903 61.4293 193.813 61.3916C193.722 61.3538 193.646 61.3232 193.584 61.2996C193.302 61.2076 193.011 61.1628 192.706 61.1628C192.301 61.1628 192.017 61.2265 191.857 61.3562C191.698 61.4859 191.619 61.6345 191.619 61.8019C191.619 62.0001 191.674 62.1628 191.784 62.2925C191.893 62.4222 192.024 62.526 192.182 62.6062C192.339 62.6864 192.568 62.7901 192.873 62.9199C193.319 63.1015 193.681 63.276 193.96 63.4387C194.242 63.6015 194.485 63.8373 194.692 64.1463C194.9 64.4552 195.002 64.8491 195.002 65.3279C195.002 65.9151 194.876 66.3939 194.621 66.7666C194.368 67.1392 194.041 67.4104 193.643 67.5779C193.245 67.743 192.816 67.8279 192.356 67.8279Z" fill="#231F20"/>
</g>
<defs>
<filter id="filter0_d_63_80" x="0" y="-6" width="220" height="123" filterUnits="userSpaceOnUse" color-interpolation-filters="sRGB">
<feFlood flood-opacity="0" result="BackgroundImageFix"/>
<feColorMatrix in="SourceAlpha" type="matrix" values="0 0 0 0 0 0 0 0 0 0 0 0 0 0 0 0 0 0 127 0" result="hardAlpha"/>
<feMorphology radius="2" operator="dilate" in="SourceAlpha" result="effect1_dropShadow_63_80"/>
<feOffset dy="4"/>
<feGaussianBlur stdDeviation="4"/>
<feComposite in2="hardAlpha" operator="out"/>
<feColorMatrix type="matrix" values="0 0 0 0 0 0 0 0 0 0 0 0 0 0 0 0 0 0 0.1 0"/>
<feBlend mode="normal" in2="BackgroundImageFix" result="effect1_dropShadow_63_80"/>
<feBlend mode="normal" in="SourceGraphic" in2="effect1_dropShadow_63_80" result="shape"/>
</filter>
<linearGradient id="paint0_linear_63_80" x1="46.3213" y1="27.0313" x2="41.5513" y2="41.4979" gradientUnits="userSpaceOnUse">
<stop stop-color="#540000"/>
<stop offset="1" stop-color="#C1161C"/>
</linearGradient>
<linearGradient id="paint1_linear_63_80" x1="67.5639" y1="43.7833" x2="50.6022" y2="43.8759" gradientUnits="userSpaceOnUse">
<stop stop-color="#470635"/>
<stop offset="1" stop-color="#A24683"/>
</linearGradient>
<linearGradient id="paint2_linear_63_80" x1="24.5511" y1="41.3905" x2="35.749" y2="50.2609" gradientUnits="userSpaceOnUse">
<stop stop-color="#573D00"/>
<stop offset="1" stop-color="#FAB613"/>
</linearGradient>
<linearGradient id="paint3_linear_63_80" x1="56.6078" y1="67.1594" x2="52.5954" y2="54.2136" gradientUnits="userSpaceOnUse">
<stop stop-color="#00314F"/>
<stop offset="1" stop-color="#007DB3"/>
</linearGradient>
<linearGradient id="paint4_linear_63_80" x1="32.2157" y1="65.6781" x2="43.8482" y2="56.8795" gradientUnits="userSpaceOnUse">
<stop stop-color="#003C10"/>
<stop offset="1" stop-color="#008944"/>
</linearGradient>
<clipPath id="clip0_63_80">
<rect width="170" height="39" fill="white" transform="translate(25 28.8279)"/>
</clipPath>
</defs>
</svg>
