<svg width="20" height="19" viewBox="0 0 20 19" fill="none" xmlns="http://www.w3.org/2000/svg">
<path d="M10.0001 18.7097C4.87466 18.7097 0.719727 14.6803 0.719727 9.70972C0.719727 4.73914 4.87466 0.709717 10.0001 0.709717C15.1255 0.709717 19.2804 4.73914 19.2804 9.70972C19.2804 14.6803 15.1255 18.7097 10.0001 18.7097Z" fill="#29A29E"/>
<path d="M5.05518 12.7223C5.95249 13.2804 7.02048 13.6067 8.1665 13.6067C11.9313 13.6067 14.0624 10.5232 13.9356 7.75175C14.3306 7.47272 14.6769 7.12747 14.95 6.73493C14.5842 6.891 14.1941 6.99505 13.7844 7.04234C14.2038 6.80115 14.5257 6.41334 14.6769 5.95459C14.2867 6.1816 13.8527 6.3424 13.3894 6.43225C13.0188 6.04917 12.4921 5.81271 11.9069 5.81271C10.5951 5.81271 9.63439 6.99978 9.93186 8.22942C8.24453 8.14902 6.75226 7.36394 5.74766 6.17214C5.21611 7.05653 5.46969 8.21523 6.37676 8.80167C6.04514 8.79221 5.73304 8.70235 5.45506 8.55574C5.43556 9.46851 6.10854 10.3198 7.08388 10.509C6.79615 10.5846 6.48405 10.6036 6.16706 10.5421C6.42552 11.3224 7.17654 11.8947 8.06409 11.9089C7.2058 12.5568 6.13292 12.8453 5.05518 12.7223Z" fill="white"/>
</svg>
