<svg width="25" height="24" viewBox="0 0 25 24" fill="none" xmlns="http://www.w3.org/2000/svg">
<path d="M12.5 23.0387C5.83696 23.0387 0.435547 17.9531 0.435547 11.6795C0.435547 5.40599 5.83696 0.320312 12.5 0.320312C19.163 0.320312 24.5644 5.40599 24.5644 11.6795C24.5644 17.9531 19.163 23.0387 12.5 23.0387Z" fill="white"/>
<path d="M6.07178 15.4821C7.23828 16.1865 8.62667 16.5983 10.1165 16.5983C15.0107 16.5983 17.7812 12.7065 17.6164 9.20857C18.1299 8.85639 18.58 8.42064 18.935 7.92521C18.4595 8.12219 17.9524 8.25351 17.4198 8.3132C17.965 8.00878 18.3835 7.51931 18.58 6.9403C18.0728 7.22682 17.5086 7.42977 16.9063 7.54318C16.4245 7.05969 15.7398 6.76123 14.979 6.76123C13.2737 6.76123 12.0247 8.25948 12.4115 9.81145C10.2179 9.70997 8.27799 8.7191 6.97201 7.21488C6.28099 8.33111 6.61065 9.79354 7.78983 10.5337C7.35873 10.5218 6.95299 10.4084 6.59163 10.2233C6.56627 11.3754 7.44115 12.4498 8.70909 12.6886C8.33505 12.7841 7.92931 12.8079 7.51723 12.7303C7.85323 13.7152 8.82955 14.4375 9.98337 14.4554C8.86758 15.2732 7.47285 15.6373 6.07178 15.4821Z" fill="#209FA9"/>
</svg>
